<?xml version="1.0" standalone="no"?><!DOCTYPE svg PUBLIC "-//W3C//DTD SVG 1.1//EN" "http://www.w3.org/Graphics/SVG/1.1/DTD/svg11.dtd"><svg t="1582682529762" class="icon" viewBox="0 0 1024 1024" version="1.1" xmlns="http://www.w3.org/2000/svg" p-id="6237" xmlns:xlink="http://www.w3.org/1999/xlink" width="200" height="200"><defs><style type="text/css"></style></defs><path d="M886.613333 585.728c-1.706667 8.704-3.584 17.578667-5.973333 26.282667-8.533333 31.744-20.821333 61.610667-36.010667 89.088 34.304 1.706667 65.536 17.237333 91.989334 42.154666l34.645333-24.064-7.509333-58.709333 23.04-24.405333c-26.794667-36.181333-61.781333-53.418667-100.181334-50.346667zM803.84 760.832c-94.890667 114.517333-250.88 169.813333-403.968 128.853333C244.906667 848.213333 136.533333 719.189333 113.493333 570.197333c-25.941333-16.384-55.466667-17.237333-87.04-10.922666l2.730667 4.437333L9.386667 619.52l40.448 43.008-7.68 58.88 48.469333 33.621333 4.608 59.050667 54.272 22.698667 16.725333 56.832 57.856 10.752 27.989334 52.053333 58.88-1.536 38.229333 45.056 57.344-13.824 46.592 36.010667 53.248-25.6 53.077333 25.429333 46.762667-36.181333 57.173333 13.653333 38.4-45.056 58.88 1.365333 28.330667-52.224 57.856-10.922666 16.896-56.832 54.442667-22.869334 1.536-18.773333c-29.866667-32.426667-71.509333-49.493333-115.882667-33.28zM394.922667 483.498667l15.189333 4.096 10.410667-39.253334-15.189334-4.096-10.410666 39.253334z m48.981333 13.141333l15.36 4.096 10.581333-39.082667-15.36-4.096-10.581333 39.082667z m-20.138667 75.093333l5.973334 1.536c2.730667 0.682667 5.290667 0.512 7.509333-0.853333s3.754667-3.413333 4.437333-6.144l9.728-36.522667-15.36-4.096-12.288 46.08z m-48.981333-13.141333l15.189333 4.096 12.288-46.08-15.189333-4.096-12.288 46.08zM108.885333 508.245333a391.970133 391.970133 0 0 1 19.285334-118.784c-31.573333-10.24-67.925333-7.338667-105.642667 3.754667l-12.629333 13.312 19.456 55.808-21.162667 34.645333c32.085333-4.096 67.754667-1.536 100.693333 11.264z m-56.32-168.96c36.010667-10.069333 67.584-12.629333 97.109334-2.901333 15.701333-31.744 35.498667-60.757333 58.368-86.528-30.890667-24.064-73.386667-34.474667-112.128-32.938667l-4.437334 53.930667-48.469333 33.792 5.461333 42.154667c1.706667-2.56 3.242667-4.949333 4.096-7.509334z m194.901334-128c94.890667-80.384 226.304-114.688 355.669333-80.042666 131.925333 35.328 230.058667 133.973333 270.506667 254.464 33.962667-12.8 73.557333-16.896 105.301333-8.874667l-14.506667-15.530667 7.68-58.88-48.469333-33.450666-4.608-59.050667-54.272-22.698667-16.554667-56.661333-57.856-10.752-27.989333-52.053333-58.88 1.536-38.229333-45.056-57.344 13.994666L561.322667 2.218667l-53.248 25.6L454.997333 2.389333l-46.762666 36.181334-57.173334-13.653334-38.4 45.056-58.88-1.365333-28.330666 52.224-57.856 11.264-11.434667 38.229333c0.341333-0.341333 1.024-0.682667 1.365333-1.024 32.426667 0.853333 61.610667 12.970667 89.941334 41.984z m768.341333 299.690667l-30.549333-50.517333 10.922666-31.232c-29.354667-19.456-68.437333-13.653333-109.226666 6.826666 6.656 34.304 8.704 69.632 5.802666 105.472 35.157333 3.754667 69.802667 17.92 98.474667 38.058667l-6.314667-18.090667 30.890667-50.517333zM589.824 180.906667c-182.101333-48.810667-369.322667 59.221333-418.133333 241.322666C122.88 604.330667 230.912 791.552 413.013333 840.192c182.101333 48.810667 369.322667-59.221333 417.962667-241.322667 48.981333-182.101333-59.050667-369.322667-241.152-417.962666z m-9.728 263.168l9.728 50.858666-48.469333-12.970666-9.557334-50.858667 48.298667 12.970667z m-304.64 148.309333l-38.058667-10.24 18.432-68.778667-37.034666-9.898666 77.482666-78.506667-46.250666-12.458667 7.850666-29.354666 22.869334 6.144-3.925334-25.6 42.496 11.434666 4.266667 25.6 39.936 10.752-50.346667 52.224 22.528 5.973334-2.218666 81.749333-33.28-8.874667 1.365333-48.298666-26.112 98.133333z m196.778667 1.706667a33.979733 33.979733 0 0 1-22.016 12.8c-4.437333 0.682667-8.874667 0.341333-13.482667-0.853334l-20.650667-5.461333-7.168 26.965333-33.792-9.045333 7.168-26.965333-53.077333-14.165334L375.466667 404.992l53.077333 14.165333 4.096-15.189333 33.792 9.045333-4.096 15.189334 53.418667 14.336-37.376 139.776c-1.365333 4.266667-3.413333 8.362667-6.144 11.776z m75.776 70.997333l-23.893334-6.314667a32.256 32.256 0 0 1-12.117333-5.973333c-3.584-2.730667-6.314667-5.973333-8.533333-9.898667-2.218667-3.754667-3.584-7.850667-4.266667-12.458666-0.682667-4.437333-0.341333-9.045333 0.853333-13.482667l24.234667-90.282667-17.237333-4.608 7.850666-29.354666 17.237334 4.608 40.618666 10.922666 0.682667 0.170667-31.402667 117.248c-0.682667 2.56-0.341333 4.949333 1.024 7.338667 1.365333 2.218667 3.413333 3.754667 5.973334 4.437333l17.578666 4.778667-18.602666 22.869333z m229.888-136.533333l-67.413334-18.090667-24.234666 90.282667 73.898666 19.797333-7.850666 29.354667-73.898667-19.797334-17.408 65.365334-41.301333-11.093334 17.578666-65.194666-75.434666-20.138667 7.850666-29.354667 75.434667 20.138667 24.234667-90.282667-68.778667-18.432 7.850667-29.354666 177.493333 47.616-8.021333 29.184z m2.730666 14.677333l-36.181333 59.050667-43.008-11.605334 36.181333-59.050666 43.008 11.605333z m-188.928-46.08l43.178667 11.605333 3.242667 65.024-43.008-11.605333-3.413334-65.024z" fill="#D82323" opacity=".5" p-id="6238"></path></svg>